<?xml version="1.0" standalone="no"?>
<!DOCTYPE svg PUBLIC "-//W3C//DTD SVG 20010904//EN"
 "http://www.w3.org/TR/2001/REC-SVG-20010904/DTD/svg10.dtd">
<svg version="1.0" xmlns="http://www.w3.org/2000/svg"
 width="1024.000000pt" height="1024.000000pt" viewBox="0 0 1024.000000 1024.000000"
 preserveAspectRatio="xMidYMid meet">
<metadata>
Created by potrace 1.14, written by Peter Selinger 2001-2017
</metadata>
<g transform="translate(0.000000,1024.000000) scale(0.100000,-0.100000)"
fill="#000000" stroke="none">
<path d="M4725 10139 c-919 -78 -1803 -401 -2534 -926 -1131 -813 -1878 -2056
-2060 -3428 -65 -495 -52 -1070 35 -1555 220 -1219 885 -2316 1871 -3087 134
-105 440 -309 593 -395 614 -348 1256 -553 1990 -635 223 -25 772 -25 1000 0
1377 151 2586 812 3437 1879 543 681 912 1528 1038 2383 65 439 72 931 19
1350 -124 987 -503 1861 -1144 2635 -122 148 -453 481 -595 599 -323 269 -628
470 -986 651 -538 272 -1084 437 -1694 511 -195 23 -777 34 -970 18z m3185
-2784 l0 -555 -840 0 -840 0 0 -2235 0 -2235 -1110 0 -1110 0 0 2235 0 2235
-840 0 -840 0 0 555 0 555 2790 0 2790 0 0 -555z"/>
</g>
</svg>
